<?xml version="1.0" encoding="UTF-8"?> <!-- Generator: Adobe Illustrator 16.0.4, SVG Export Plug-In . SVG Version: 6.00 Build 0) --> <svg xmlns="http://www.w3.org/2000/svg" xmlns:xlink="http://www.w3.org/1999/xlink" id="Layer_1" x="0px" y="0px" width="158px" height="35px" viewBox="0 0 158 35" xml:space="preserve"> <g> <path fill="#004A90" d="M44.467,18.252h4.25l-1.692-5.669L44.467,18.252z M42.085,6.366h10.744c0.875,2.605,1.775,5.16,2.692,7.67 c1.177,3.27,2.123,5.838,2.833,7.703c0.261,0.675,0.52,1.347,0.778,2.02l-0.242,5.687h-6.996c-0.228-0.876-0.498-1.775-0.794-2.695 c-0.414-1.177-0.713-2.051-0.897-2.627h-8.259l-2.348,5.322h-9.848c2.053-3.475,4.183-7.29,6.392-11.438 C38.122,14.299,40.101,10.421,42.085,6.366"></path> <path fill="#004A90" d="M141.142,18.252h4.251l-1.694-5.669L141.142,18.252z M138.758,6.366h10.744 c0.876,2.605,1.773,5.16,2.694,7.67c1.176,3.27,2.121,5.838,2.834,7.703c0.988,2.58,1.981,5.147,2.97,7.706h-9.432 c-0.228-0.876-0.495-1.775-0.792-2.695c-0.417-1.177-0.714-2.051-0.9-2.627h-8.257l-2.351,5.322h-9.846 c2.051-3.475,4.184-7.29,6.393-11.438C134.797,14.299,136.774,10.421,138.758,6.366"></path> <path fill="#004A90" d="M99.024,6.366h11.401c0.117,0.782,0.436,2.797,0.97,6.046c0.433,2.647,0.723,4.711,0.859,6.185 c0.464-1.937,1.139-4.49,2.041-7.672c0.737-2.604,1.161-4.125,1.275-4.559h11.683c0,2.488-0.067,5.041-0.192,7.651 c-0.124,2.614-0.256,5.355-0.383,8.225c-0.122,2.867-0.187,5.271-0.187,7.204h-7.67c0-1.637,0.055-3.475,0.172-5.528 c0.275-4.928,0.414-8.016,0.414-9.26l-4.179,14.788h-7.567l-2.42-14.788c-0.254,2.352-0.469,4.849-0.655,7.498 c-0.188,2.647-0.275,5.079-0.275,7.29h-7.29c0.297-2.559,0.607-5.184,0.931-7.879c0.325-2.692,0.584-5.299,0.778-7.808 C98.924,11.25,99.024,8.785,99.024,6.366"></path> <path fill="#004A90" d="M85.101,6.366h9.293c-0.67,7.761-1.003,15.455-1.003,23.08h-8.23l-1.125-1.039 c0.021-1.888,0.11-4.001,0.254-6.337c0.172-2.778,0.35-5.652,0.533-8.622C85.009,10.476,85.101,8.114,85.101,6.366"></path> <path fill="#004A90" d="M2.004,6.366h11.402c0.117,0.782,0.438,2.797,0.969,6.046c0.433,2.647,0.723,4.711,0.862,6.185 c0.464-1.937,1.139-4.49,2.039-7.672c0.739-2.604,1.163-4.125,1.278-4.559h11.68c0,2.488-0.065,5.041-0.192,7.651 c-0.126,2.614-0.253,5.355-0.38,8.225c-0.125,2.867-0.189,5.271-0.189,7.204h-7.67c0-1.637,0.057-3.475,0.172-5.528 c0.277-4.928,0.414-8.016,0.414-9.26l-4.179,14.788h-7.567L8.225,14.658c-0.256,2.352-0.473,4.849-0.657,7.498 c-0.187,2.647-0.278,5.079-0.278,7.29H0c0.301-2.559,0.61-5.184,0.935-7.879c0.323-2.692,0.582-5.299,0.776-7.808 C1.905,11.25,2.004,8.785,2.004,6.366"></path> <path fill="#FFFFFF" d="M83.75,32.95c0,0.01-0.055-0.309-0.055-0.309c0,0.002-0.312-0.419-0.312-0.419l-0.162-0.12 c-0.661-0.488-0.879-0.667-0.945-0.732c-0.084-0.088-0.135-0.148-0.17-0.2c0.026-0.021,0.055-0.053,0.083-0.053l0.702,0.076 l0.311-0.225l1.293-1.293l-0.479-0.493c-1.256-1.302-2.307-2.503-3.12-3.575c-0.854-1.13-1.752-2.486-2.669-4.035 c-0.632-1.074-1.397-2.551-2.338-4.507c-0.004-0.005-0.225-0.496-0.392-0.86c0.663-0.812,1.653-1.768,2.979-2.862 c2.46-2.017,3.841-3.941,4.222-5.89l0.007-0.025l0.235-1.93c0.117-0.946,0.179-1.868,0.179-2.743c0-0.674,0-2.254-1.103-2.254 c-0.438,0-0.764,0.318-0.993,0.594c0,0-7.738,8.492-8.83,9.689c-0.79-1.292-4.947-8.113-4.947-8.113l-7.132,7.263 c0,0,0.187,0.812,0.229,0.992c-0.021,0.066-0.069,0.208-0.199,0.467l-0.101,0.192l0.029,0.213c0.12,0.92,0.318,1.8,0.603,2.692 c0.278,0.856,0.625,1.725,1.077,2.658l0.012,0.029L61.78,17.2c0.526,0.89,1.151,1.734,1.835,2.531 c-0.615,0.745-4.171,5.053-4.171,5.053l-0.251,5.957c0,0,6.344-5.251,7.318-6.058c0.644,0.914,1.257,1.692,1.855,2.341 c0.728,0.785,1.625,1.632,2.745,2.594c2.52,1.958,4.311,3.193,5.509,3.791c1.938,0.968,4.16,1.46,6.611,1.46h0.82l-0.137-0.811 C83.77,33.182,83.753,32.988,83.75,32.95"></path> <path fill="#E6282B" d="M83.516,29.668l-0.807,0.807c-0.193-0.043-0.371-0.058-0.52-0.058c-0.311,0-0.576,0.177-0.809,0.521 c-0.117,0.23,0.02,0.531,0.404,0.924c0.132,0.135,0.475,0.397,1.022,0.8c0.05,0.033,0.101,0.071,0.148,0.11 c0.058,0.043,0.066,0.055,0.086,0.103c0.007,0.02,0.015,0.048,0.015,0.084c0,0.114,0.055,0.517,0.175,1.213 c-2.349,0-4.45-0.462-6.297-1.386c-1.153-0.579-2.946-1.813-5.373-3.7c-1.074-0.919-1.969-1.766-2.685-2.536 c-0.713-0.771-1.448-1.735-2.224-2.887l-6.699,5.543l0.175-4.157l4.389-5.313c-0.809-0.89-1.522-1.848-2.137-2.887 c-0.426-0.891-0.771-1.743-1.039-2.572c-0.266-0.83-0.462-1.683-0.577-2.57c0.194-0.383,0.287-0.655,0.287-0.809l-0.172-0.751 l6.237-6.35l4.966,8.142l9.471-10.396c0.191-0.231,0.344-0.346,0.462-0.346c0.266,0,0.404,0.521,0.404,1.558 c0,0.847-0.056,1.731-0.173,2.657c-0.117,0.924-0.196,1.562-0.231,1.907c-0.345,1.769-1.673,3.593-3.985,5.487 c-1.539,1.271-2.656,2.367-3.351,3.291c0.232,0.533,0.428,0.961,0.579,1.27c0.924,1.921,1.711,3.445,2.37,4.562 c0.959,1.615,1.867,2.984,2.714,4.1C81.185,27.141,82.247,28.354,83.516,29.668"></path> </g> </svg> 